solid calibration angle
facet normal 0.0 0.0 -1.0
outer loop
vertex 0.0 50.0 0.0
vertex 2.5 47.5 0.0
vertex 0.0 0.0 0.0
endloop
endfacet
facet normal 0.0 0.0 -1.0
outer loop
vertex 2.5 47.5 0.0
vertex 0.0 50.0 0.0
vertex 10.0 50.0 0.0
endloop
endfacet
facet normal 0.0 0.0 -1.0
outer loop
vertex 2.5 47.5 0.0
vertex 10.0 50.0 0.0
vertex 7.5 47.5 0.0
endloop
endfacet
facet normal 0.0 0.0 -1.0
outer loop
vertex 7.5 47.5 0.0
vertex 10.0 50.0 0.0
vertex 7.5 42.5 0.0
endloop
endfacet
facet normal 0.0 0.0 -1.0
outer loop
vertex 7.5 42.5 0.0
vertex 10.0 50.0 0.0
vertex 7.5 40.0 0.0
endloop
endfacet
facet normal 0.0 0.0 -1.0
outer loop
vertex 7.5 40.0 0.0
vertex 10.0 50.0 0.0
vertex 7.5 10.0 0.0
endloop
endfacet
facet normal 0.0 0.0 -1.0
outer loop
vertex 7.5 10.0 0.0
vertex 10.0 50.0 0.0
vertex 7.5 7.5 0.0
endloop
endfacet
facet normal 0.0 0.0 -1.0
outer loop
vertex 7.5 7.5 0.0
vertex 10.0 50.0 0.0
vertex 7.5 2.5 0.0
endloop
endfacet
facet normal 0.0 0.0 -1.0
outer loop
vertex 10.0 10.0 0.0
vertex 10.0 7.5 0.0
vertex 10.0 50.0 0.0
endloop
endfacet
facet normal 0.0 0.0 -1.0
outer loop
vertex 10.0 7.5 0.0
vertex 10.0 10.0 0.0
vertex 40.0 7.5 0.0
endloop
endfacet
facet normal 0.0 0.0 -1.0
outer loop
vertex 40.0 7.5 0.0
vertex 10.0 10.0 0.0
vertex 50.0 10.0 0.0
endloop
endfacet
facet normal 0.0 0.0 -1.0
outer loop
vertex 40.0 7.5 0.0
vertex 50.0 10.0 0.0
vertex 42.5 7.5 0.0
endloop
endfacet
facet normal 0.0 0.0 -1.0
outer loop
vertex 40.0 7.5 0.0
vertex 42.5 7.5 0.0
vertex 40.0 2.5 0.0
endloop
endfacet
facet normal 0.0 0.0 -1.0
outer loop
vertex 42.5 7.5 0.0
vertex 50.0 10.0 0.0
vertex 47.5 7.5 0.0
endloop
endfacet
facet normal 0.0 0.0 -1.0
outer loop
vertex 47.5 7.5 0.0
vertex 50.0 10.0 0.0
vertex 47.5 2.5 0.0
endloop
endfacet
facet normal 0.0 0.0 -1.0
outer loop
vertex 0.0 0.0 0.0
vertex 2.5 2.5 0.0
vertex 50.0 0.0 0.0
endloop
endfacet
facet normal 0.0 0.0 -1.0
outer loop
vertex 2.5 2.5 0.0
vertex 0.0 0.0 0.0
vertex 2.5 47.5 0.0
endloop
endfacet
facet normal 0.0 0.0 -1.0
outer loop
vertex 2.5 2.5 0.0
vertex 2.5 47.5 0.0
vertex 2.5 42.5 0.0
endloop
endfacet
facet normal 0.0 0.0 -1.0
outer loop
vertex 2.5 2.5 0.0
vertex 2.5 42.5 0.0
vertex 2.5 40.0 0.0
endloop
endfacet
facet normal 0.0 0.0 -1.0
outer loop
vertex 2.5 2.5 0.0
vertex 2.5 40.0 0.0
vertex 2.5 10.0 0.0
endloop
endfacet
facet normal 0.0 0.0 -1.0
outer loop
vertex 2.5 2.5 0.0
vertex 2.5 10.0 0.0
vertex 2.5 7.5 0.0
endloop
endfacet
facet normal 0.0 0.0 -1.0
outer loop
vertex 50.0 0.0 0.0
vertex 2.5 2.5 0.0
vertex 7.5 2.5 0.0
endloop
endfacet
facet normal 0.0 0.0 -1.0
outer loop
vertex 50.0 0.0 0.0
vertex 7.5 2.5 0.0
vertex 10.0 2.5 0.0
endloop
endfacet
facet normal 0.0 0.0 -1.0
outer loop
vertex 10.0 2.5 0.0
vertex 7.5 2.5 0.0
vertex 10.0 50.0 0.0
endloop
endfacet
facet normal 0.0 0.0 -1.0
outer loop
vertex 10.0 2.5 0.0
vertex 10.0 50.0 0.0
vertex 10.0 7.5 0.0
endloop
endfacet
facet normal 0.0 0.0 -1.0
outer loop
vertex 50.0 0.0 0.0
vertex 10.0 2.5 0.0
vertex 40.0 2.5 0.0
endloop
endfacet
facet normal 0.0 0.0 -1.0
outer loop
vertex 50.0 0.0 0.0
vertex 40.0 2.5 0.0
vertex 42.5 2.5 0.0
endloop
endfacet
facet normal 0.0 0.0 -1.0
outer loop
vertex 42.5 2.5 0.0
vertex 40.0 2.5 0.0
vertex 42.5 7.5 0.0
endloop
endfacet
facet normal 0.0 0.0 -1.0
outer loop
vertex 50.0 0.0 0.0
vertex 42.5 2.5 0.0
vertex 47.5 2.5 0.0
endloop
endfacet
facet normal 0.0 0.0 -1.0
outer loop
vertex 50.0 0.0 0.0
vertex 47.5 2.5 0.0
vertex 50.0 10.0 0.0
endloop
endfacet
facet normal 0.0 0.0 -1.0
outer loop
vertex 7.5 10.0 0.0
vertex 2.5 7.5 0.0
vertex 2.5 10.0 0.0
endloop
endfacet
facet normal 0.0 0.0 -1.0
outer loop
vertex 2.5 7.5 0.0
vertex 7.5 10.0 0.0
vertex 7.5 7.5 0.0
endloop
endfacet
facet normal 0.0 0.0 -1.0
outer loop
vertex 7.5 42.5 0.0
vertex 2.5 40.0 0.0
vertex 2.5 42.5 0.0
endloop
endfacet
facet normal 0.0 0.0 -1.0
outer loop
vertex 2.5 40.0 0.0
vertex 7.5 42.5 0.0
vertex 7.5 40.0 0.0
endloop
endfacet
facet normal -0.0 -0.0 1.0
outer loop
vertex 0.0 0.0 5.0
vertex 2.5 2.5 5.0
vertex 0.0 50.0 5.0
endloop
endfacet
facet normal -0.0 -0.0 1.0
outer loop
vertex 2.5 2.5 5.0
vertex 0.0 0.0 5.0
vertex 50.0 0.0 5.0
endloop
endfacet
facet normal -0.0 -0.0 1.0
outer loop
vertex 2.5 2.5 5.0
vertex 50.0 0.0 5.0
vertex 7.5 2.5 5.0
endloop
endfacet
facet normal -0.0 -0.0 1.0
outer loop
vertex 7.5 2.5 5.0
vertex 50.0 0.0 5.0
vertex 10.0 2.5 5.0
endloop
endfacet
facet normal -0.0 -0.0 1.0
outer loop
vertex 7.5 2.5 5.0
vertex 10.0 2.5 5.0
vertex 7.5 7.5 5.0
endloop
endfacet
facet normal -0.0 -0.0 1.0
outer loop
vertex 7.5 7.5 5.0
vertex 10.0 2.5 5.0
vertex 7.5 10.0 5.0
endloop
endfacet
facet normal -0.0 -0.0 1.0
outer loop
vertex 7.5 10.0 5.0
vertex 10.0 2.5 5.0
vertex 7.5 40.0 5.0
endloop
endfacet
facet normal -0.0 -0.0 1.0
outer loop
vertex 7.5 40.0 5.0
vertex 10.0 2.5 5.0
vertex 7.5 42.5 5.0
endloop
endfacet
facet normal -0.0 -0.0 1.0
outer loop
vertex 7.5 42.5 5.0
vertex 10.0 2.5 5.0
vertex 7.5 47.5 5.0
endloop
endfacet
facet normal -0.0 -0.0 1.0
outer loop
vertex 10.0 2.5 5.0
vertex 50.0 0.0 5.0
vertex 40.0 2.5 5.0
endloop
endfacet
facet normal -0.0 -0.0 1.0
outer loop
vertex 40.0 2.5 5.0
vertex 50.0 0.0 5.0
vertex 42.5 2.5 5.0
endloop
endfacet
facet normal -0.0 -0.0 1.0
outer loop
vertex 40.0 2.5 5.0
vertex 42.5 2.5 5.0
vertex 40.0 7.5 5.0
endloop
endfacet
facet normal -0.0 -0.0 1.0
outer loop
vertex 42.5 2.5 5.0
vertex 50.0 0.0 5.0
vertex 47.5 2.5 5.0
endloop
endfacet
facet normal -0.0 -0.0 1.0
outer loop
vertex 47.5 2.5 5.0
vertex 50.0 0.0 5.0
vertex 47.5 7.5 5.0
endloop
endfacet
facet normal -0.0 -0.0 1.0
outer loop
vertex 0.0 50.0 5.0
vertex 2.5 47.5 5.0
vertex 10.0 50.0 5.0
endloop
endfacet
facet normal -0.0 -0.0 1.0
outer loop
vertex 2.5 47.5 5.0
vertex 0.0 50.0 5.0
vertex 2.5 2.5 5.0
endloop
endfacet
facet normal -0.0 -0.0 1.0
outer loop
vertex 2.5 47.5 5.0
vertex 2.5 2.5 5.0
vertex 2.5 7.5 5.0
endloop
endfacet
facet normal -0.0 -0.0 1.0
outer loop
vertex 2.5 47.5 5.0
vertex 2.5 7.5 5.0
vertex 2.5 10.0 5.0
endloop
endfacet
facet normal -0.0 -0.0 1.0
outer loop
vertex 2.5 47.5 5.0
vertex 2.5 10.0 5.0
vertex 2.5 40.0 5.0
endloop
endfacet
facet normal -0.0 -0.0 1.0
outer loop
vertex 2.5 47.5 5.0
vertex 2.5 40.0 5.0
vertex 2.5 42.5 5.0
endloop
endfacet
facet normal -0.0 -0.0 1.0
outer loop
vertex 10.0 50.0 5.0
vertex 2.5 47.5 5.0
vertex 7.5 47.5 5.0
endloop
endfacet
facet normal -0.0 -0.0 1.0
outer loop
vertex 10.0 50.0 5.0
vertex 7.5 47.5 5.0
vertex 10.0 2.5 5.0
endloop
endfacet
facet normal -0.0 -0.0 1.0
outer loop
vertex 10.0 50.0 5.0
vertex 10.0 2.5 5.0
vertex 10.0 7.5 5.0
endloop
endfacet
facet normal -0.0 -0.0 1.0
outer loop
vertex 10.0 50.0 5.0
vertex 10.0 7.5 5.0
vertex 10.0 10.0 5.0
endloop
endfacet
facet normal -0.0 -0.0 1.0
outer loop
vertex 10.0 10.0 5.0
vertex 10.0 7.5 5.0
vertex 40.0 7.5 5.0
endloop
endfacet
facet normal -0.0 -0.0 1.0
outer loop
vertex 10.0 10.0 5.0
vertex 40.0 7.5 5.0
vertex 50.0 10.0 5.0
endloop
endfacet
facet normal -0.0 -0.0 1.0
outer loop
vertex 50.0 10.0 5.0
vertex 40.0 7.5 5.0
vertex 42.5 7.5 5.0
endloop
endfacet
facet normal -0.0 -0.0 1.0
outer loop
vertex 42.5 7.5 5.0
vertex 40.0 7.5 5.0
vertex 42.5 2.5 5.0
endloop
endfacet
facet normal -0.0 -0.0 1.0
outer loop
vertex 50.0 10.0 5.0
vertex 42.5 7.5 5.0
vertex 47.5 7.5 5.0
endloop
endfacet
facet normal -0.0 -0.0 1.0
outer loop
vertex 50.0 10.0 5.0
vertex 47.5 7.5 5.0
vertex 50.0 0.0 5.0
endloop
endfacet
facet normal -0.0 -0.0 1.0
outer loop
vertex 7.5 40.0 5.0
vertex 2.5 42.5 5.0
vertex 2.5 40.0 5.0
endloop
endfacet
facet normal -0.0 -0.0 1.0
outer loop
vertex 2.5 42.5 5.0
vertex 7.5 40.0 5.0
vertex 7.5 42.5 5.0
endloop
endfacet
facet normal -0.0 -0.0 1.0
outer loop
vertex 7.5 7.5 5.0
vertex 2.5 10.0 5.0
vertex 2.5 7.5 5.0
endloop
endfacet
facet normal -0.0 -0.0 1.0
outer loop
vertex 2.5 10.0 5.0
vertex 7.5 7.5 5.0
vertex 7.5 10.0 5.0
endloop
endfacet
facet normal -0.0 1.0 0.0
outer loop
vertex 0.0 50.0 5.0
vertex 10.0 50.0 0.0
vertex 0.0 50.0 0.0
endloop
endfacet
facet normal -0.0 1.0 0.0
outer loop
vertex 10.0 50.0 0.0
vertex 0.0 50.0 5.0
vertex 10.0 50.0 5.0
endloop
endfacet
facet normal 1.0 3.52495810318487e-17 0.0
outer loop
vertex 10.0 50.0 0.0
vertex 10.0 10.0 5.0
vertex 10.0 10.0 0.0
endloop
endfacet
facet normal 1.0 3.52495810318487e-17 0.0
outer loop
vertex 10.0 10.0 5.0
vertex 10.0 50.0 0.0
vertex 10.0 50.0 5.0
endloop
endfacet
facet normal -3.52495810318487e-17 1.0 0.0
outer loop
vertex 10.0 10.0 5.0
vertex 50.0 10.0 0.0
vertex 10.0 10.0 0.0
endloop
endfacet
facet normal -3.52495810318487e-17 1.0 0.0
outer loop
vertex 50.0 10.0 0.0
vertex 10.0 10.0 5.0
vertex 50.0 10.0 5.0
endloop
endfacet
facet normal 1.0 0.0 0.0
outer loop
vertex 50.0 10.0 0.0
vertex 50.0 0.0 5.0
vertex 50.0 0.0 0.0
endloop
endfacet
facet normal 1.0 0.0 0.0
outer loop
vertex 50.0 0.0 5.0
vertex 50.0 10.0 0.0
vertex 50.0 10.0 5.0
endloop
endfacet
facet normal -0.0 -1.0 -0.0
outer loop
vertex 50.0 0.0 5.0
vertex 0.0 0.0 0.0
vertex 50.0 0.0 0.0
endloop
endfacet
facet normal -0.0 -1.0 -0.0
outer loop
vertex 0.0 0.0 0.0
vertex 50.0 0.0 5.0
vertex 0.0 0.0 5.0
endloop
endfacet
facet normal -1.0 0.0 0.0
outer loop
vertex 0.0 50.0 5.0
vertex 0.0 0.0 0.0
vertex 0.0 0.0 5.0
endloop
endfacet
facet normal -1.0 0.0 0.0
outer loop
vertex 0.0 0.0 0.0
vertex 0.0 50.0 5.0
vertex 0.0 50.0 0.0
endloop
endfacet
facet normal -0.0 -1.0 -0.0
outer loop
vertex 7.5 7.5 5.0
vertex 2.5 7.5 0.0
vertex 7.5 7.5 0.0
endloop
endfacet
facet normal -0.0 -1.0 -0.0
outer loop
vertex 2.5 7.5 0.0
vertex 7.5 7.5 5.0
vertex 2.5 7.5 5.0
endloop
endfacet
facet normal 1.0 0.0 0.0
outer loop
vertex 2.5 7.5 0.0
vertex 2.5 2.5 5.0
vertex 2.5 2.5 0.0
endloop
endfacet
facet normal 1.0 0.0 0.0
outer loop
vertex 2.5 2.5 5.0
vertex 2.5 7.5 0.0
vertex 2.5 7.5 5.0
endloop
endfacet
facet normal -0.0 1.0 0.0
outer loop
vertex 2.5 2.5 5.0
vertex 7.5 2.5 0.0
vertex 2.5 2.5 0.0
endloop
endfacet
facet normal -0.0 1.0 0.0
outer loop
vertex 7.5 2.5 0.0
vertex 2.5 2.5 5.0
vertex 7.5 2.5 5.0
endloop
endfacet
facet normal -1.0 0.0 0.0
outer loop
vertex 7.5 7.5 5.0
vertex 7.5 2.5 0.0
vertex 7.5 2.5 5.0
endloop
endfacet
facet normal -1.0 0.0 0.0
outer loop
vertex 7.5 2.5 0.0
vertex 7.5 7.5 5.0
vertex 7.5 7.5 0.0
endloop
endfacet
facet normal 1.0 0.0 0.0
outer loop
vertex 10.0 7.5 0.0
vertex 10.0 2.5 5.0
vertex 10.0 2.5 0.0
endloop
endfacet
facet normal 1.0 0.0 0.0
outer loop
vertex 10.0 2.5 5.0
vertex 10.0 7.5 0.0
vertex 10.0 7.5 5.0
endloop
endfacet
facet normal -3.52495810318487e-17 1.0 0.0
outer loop
vertex 10.0 2.5 5.0
vertex 40.0 2.5 0.0
vertex 10.0 2.5 0.0
endloop
endfacet
facet normal -3.52495810318487e-17 1.0 0.0
outer loop
vertex 40.0 2.5 0.0
vertex 10.0 2.5 5.0
vertex 40.0 2.5 5.0
endloop
endfacet
facet normal -1.0 0.0 0.0
outer loop
vertex 40.0 7.5 5.0
vertex 40.0 2.5 0.0
vertex 40.0 2.5 5.0
endloop
endfacet
facet normal -1.0 0.0 0.0
outer loop
vertex 40.0 2.5 0.0
vertex 40.0 7.5 5.0
vertex 40.0 7.5 0.0
endloop
endfacet
facet normal 4.69994413757983e-17 -1.0 0.0
outer loop
vertex 40.0 7.5 5.0
vertex 10.0 7.5 0.0
vertex 40.0 7.5 0.0
endloop
endfacet
facet normal 4.69994413757983e-17 -1.0 0.0
outer loop
vertex 10.0 7.5 0.0
vertex 40.0 7.5 5.0
vertex 10.0 7.5 5.0
endloop
endfacet
facet normal -1.0 0.0 0.0
outer loop
vertex 47.5 7.5 5.0
vertex 47.5 2.5 0.0
vertex 47.5 2.5 5.0
endloop
endfacet
facet normal -1.0 0.0 0.0
outer loop
vertex 47.5 2.5 0.0
vertex 47.5 7.5 5.0
vertex 47.5 7.5 0.0
endloop
endfacet
facet normal -0.0 -1.0 -0.0
outer loop
vertex 47.5 7.5 5.0
vertex 42.5 7.5 0.0
vertex 47.5 7.5 0.0
endloop
endfacet
facet normal -0.0 -1.0 -0.0
outer loop
vertex 42.5 7.5 0.0
vertex 47.5 7.5 5.0
vertex 42.5 7.5 5.0
endloop
endfacet
facet normal 1.0 0.0 0.0
outer loop
vertex 42.5 7.5 0.0
vertex 42.5 2.5 5.0
vertex 42.5 2.5 0.0
endloop
endfacet
facet normal 1.0 0.0 0.0
outer loop
vertex 42.5 2.5 5.0
vertex 42.5 7.5 0.0
vertex 42.5 7.5 5.0
endloop
endfacet
facet normal -0.0 1.0 0.0
outer loop
vertex 42.5 2.5 5.0
vertex 47.5 2.5 0.0
vertex 42.5 2.5 0.0
endloop
endfacet
facet normal -0.0 1.0 0.0
outer loop
vertex 47.5 2.5 0.0
vertex 42.5 2.5 5.0
vertex 47.5 2.5 5.0
endloop
endfacet
facet normal 2.8199664825479e-16 1.0 0.0
outer loop
vertex 2.5 10.0 5.0
vertex 7.5 10.0 0.0
vertex 2.5 10.0 0.0
endloop
endfacet
facet normal 2.8199664825479e-16 1.0 0.0
outer loop
vertex 7.5 10.0 0.0
vertex 2.5 10.0 5.0
vertex 7.5 10.0 5.0
endloop
endfacet
facet normal -1.0 0.0 0.0
outer loop
vertex 7.5 40.0 5.0
vertex 7.5 10.0 0.0
vertex 7.5 10.0 5.0
endloop
endfacet
facet normal -1.0 0.0 0.0
outer loop
vertex 7.5 10.0 0.0
vertex 7.5 40.0 5.0
vertex 7.5 40.0 0.0
endloop
endfacet
facet normal -0.0 -1.0 -0.0
outer loop
vertex 7.5 40.0 5.0
vertex 2.5 40.0 0.0
vertex 7.5 40.0 0.0
endloop
endfacet
facet normal -0.0 -1.0 -0.0
outer loop
vertex 2.5 40.0 0.0
vertex 7.5 40.0 5.0
vertex 2.5 40.0 5.0
endloop
endfacet
facet normal 1.0 0.0 0.0
outer loop
vertex 2.5 40.0 0.0
vertex 2.5 10.0 5.0
vertex 2.5 10.0 0.0
endloop
endfacet
facet normal 1.0 0.0 0.0
outer loop
vertex 2.5 10.0 5.0
vertex 2.5 40.0 0.0
vertex 2.5 40.0 5.0
endloop
endfacet
facet normal 1.0 0.0 0.0
outer loop
vertex 2.5 47.5 0.0
vertex 2.5 42.5 5.0
vertex 2.5 42.5 0.0
endloop
endfacet
facet normal 1.0 0.0 0.0
outer loop
vertex 2.5 42.5 5.0
vertex 2.5 47.5 0.0
vertex 2.5 47.5 5.0
endloop
endfacet
facet normal -0.0 1.0 0.0
outer loop
vertex 2.5 42.5 5.0
vertex 7.5 42.5 0.0
vertex 2.5 42.5 0.0
endloop
endfacet
facet normal -0.0 1.0 0.0
outer loop
vertex 7.5 42.5 0.0
vertex 2.5 42.5 5.0
vertex 7.5 42.5 5.0
endloop
endfacet
facet normal -1.0 0.0 0.0
outer loop
vertex 7.5 47.5 5.0
vertex 7.5 42.5 0.0
vertex 7.5 42.5 5.0
endloop
endfacet
facet normal -1.0 0.0 0.0
outer loop
vertex 7.5 42.5 0.0
vertex 7.5 47.5 5.0
vertex 7.5 47.5 0.0
endloop
endfacet
facet normal -0.0 -1.0 -0.0
outer loop
vertex 7.5 47.5 5.0
vertex 2.5 47.5 0.0
vertex 7.5 47.5 0.0
endloop
endfacet
facet normal -0.0 -1.0 -0.0
outer loop
vertex 2.5 47.5 0.0
vertex 7.5 47.5 5.0
vertex 2.5 47.5 5.0
endloop
endfacet
endsolid calibration angle
